<?xml version="1.0" encoding="utf-8"?>
<svg viewBox="0 0 500 500" xmlns="http://www.w3.org/2000/svg">
  <g transform="matrix(0.785425, 0, 0, 0.785425, -22.249098, -21.66831)" style="">
    <g>
      <g class="st0"/>
    </g>
    <g style="" transform="matrix(1.346626, 0, 0, 1.346626, -118.359383, -91.815811)">
      <path d="M164.4,309.6c1.3-1.6,1.8-3.4,2.4-5c2.6-7.4,6.1-14.3,11.2-20.3c5.8-6.8,12.6-11.9,21.3-14.4c1.8-0.5,3.6-1.2,5.3-2 c2.2-0.9,4-2.2,4.6-4.9c0.6-2.5,2.6-4.4,4.3-6.4c0.5-0.6,1.1-1.1,1.6-1.7c3.2-3.7,3.2-4.4,0.5-8.3c-2.5-3.6-4.9-7.3-6.4-11.4 c-2.4-6.3-1.2-11.8,3.6-16.6c4.4-4.4,9.7-7.4,15.2-10.2c7.5-3.9,14.9-8,21.8-13c2.2-1.6,4.2-3.3,6.1-5.1 c4.2-3.8,8.7-7.2,13.7-9.9c8.4-4.5,13.2-12,17.5-20.1c3.4-6.4,5.8-13.2,9.1-19.6c0.9-1.8,1.9-3.6,3-5.3 c3.6-5.8,8.7-9.4,15.5-10.3c10.7-1.3,21.4-1.1,32,1.5c1.8,0.4,3.5,1.2,5.2,2.1c3.1,1.5,5,4,5.6,7.4c0.5,2.8,1.1,5.5,1.4,8.3 c0.2,1.8,1,2.3,2.7,2.2c12-0.1,24-0.2,36,0.3c4.4,0.2,8.8,0.5,13.1,1c3.8,0.4,6.7-0.9,9-3.8c2.9-3.7,5.6-7.5,9-10.8 c6.3-6.1,13.6-10.3,22-12.6c10.7-2.9,19.4,0.8,26.9,8.3c2.7,2.7,5.3,5.6,7.7,8.6c8.6,10.9,19.8,16.4,33.7,16.9 c4.5,0.2,9,0.9,13.5,1.6c3,0.4,3.1,0.8,2.7,3.8c-1.4,9.8-7,16.5-15.3,21.4c-3.6,2.1-7.4,3.7-11.3,5.1c-4,1.4-8,2.5-11.5,5.4 c-2.6,2.2-6.6,2.7-10,3.7c-1.9,0.6-3.3,1.6-4.6,3c-1.1,1.1-1.1,2,0.2,2.9c9.8,6.3,16.2,15.5,21.7,25.5 c7.5,13.7,13.4,28,15.2,43.7c2,16.4-0.3,32.1-9.2,46.4c-4.6,7.5-11,12.8-19.5,15.3c-0.7,0.2-1.3,0.5-1.7,1.1 c-2.1,3.6-3.7,7.2-3.7,11.5c0,3.5,0.1,6.9,0,10.4c0,3.2-1.2,4.2-4.3,4.1c-0.8,0-1.6-0.2-2.3-0.1c-1,0.2-1.7,0.8-1,1.8 c8.1,12,7.2,25.3,5.3,38.6c-1.3,9.2-2.8,18.4-5.3,27.4c-2.7,9.3-6.9,17.6-13.8,24.8c-17.2,17.8-37.7,29.6-61.9,34.9 c-8.7,1.9-17.6,2.4-26.4,0.3c-7.9-1.9-13.9-6-16.4-14.2c-0.4-1.2-1-2-2.1-0.8c-3.8,3.8-8.6,4.9-13.6,5.6 c-6.5,0.9-13,0.3-19.5,0.4c-9.1,0.1-16.7,3.5-22.7,10.1c-1.6,1.8-2.9,1.9-5,0.9c-8.6-4.1-17.4-8-26.3-11.3 c-13.5-5-27.6-7.1-41.8-8.5c-14.3-1.5-28.8-1.9-43-4.7c-6-1.2-11.9-2.7-17.7-4.8c-13.2-4.9-21.9-14.2-26.5-27.4 c-1.6-4.5-3.2-9-3.9-13.8c-0.6-4.1-2.7-7-6.6-9c-7.2-3.7-12.9-9.4-17.3-16.3c-3.6-5.7-3.7-11.8-1.6-18.1 c1.9-5.5,5.1-10.2,8.7-14.7c4.5-5.8,9.4-11.1,14.6-16.3c5.8-5.7,8.5-12.4,8.9-20.5c0.5-10.6,4.2-20.3,9.3-29.6 c0.9-1.7,1.9-4,4.1-3.8c2.1,0.2,2.4,2.7,2.9,4.5c1.1,3.7,2,7.4,3,11.1C163.3,307.1,163.4,308.3,164.4,309.6z M445.1,150.4 c0.8,1.4,1.6,2.8,2.4,4.2c4.4,7.5,9.9,14,16.9,19.4c18,13.9,39.5,11.4,53.8,2.6c3.3-2,6.1-4.5,7.5-8.2c1.9-4.8,0.5-7.1-4.4-8 c-0.5-0.1-1.1-0.2-1.6-0.2c-6.6-0.6-13.1-1.2-19.5-3c-2.1-0.6-2.8,0-2.9,2.3c-0.1,1.1,0.1,2.6-1.2,3c-1.3,0.4-2.2-0.6-3-1.4 c-2.8-2.8-4.9-6.1-6.9-9.5c-3.7-5.9-6.7-12.2-11.2-17.6c-7.6-9.2-22-10.6-31.2-2.9c-5.2,4.3-9.7,9.4-14,14.6 c-5.6,6.9-10.8,14.1-17.3,20.1c-1.7,1.5-3.4,3-5.6,3.9c-0.8,0.3-1.8,0.5-2.4-0.2c-0.7-0.7,0-1.5,0.3-2.2c1.2-2.2,3-4,4.7-5.8 c1.5-1.7,3.3-3.3,3.5-5.9c-0.5-0.2-0.8-0.4-1.2-0.5c-0.9-0.2-1.8-0.4-2.8-0.5c-21-2.3-42-2-62.8,1.5 c-21.6,3.6-42.3,9.7-61.3,20.8c-8.9,5.2-17.5,10.8-24.9,18.1c-1.6,1.6-3.4,3.1-3.2,5.8c0.1,0.9-0.7,1.5-1.4,2 c-1.8,1.4-3.7,2.3-5.8,3.2c-4,1.7-8,3.2-11.9,5.1c-6.2,2.9-12.1,6.4-16.5,11.8c-6.5,7.9-4,15.7,5.8,18.5 c5.9,1.7,11.8,1.2,17.7,0.3c4.7-0.7,9.4-1.6,13.8-3.6c1.3-0.6,2.6-1.2,2.9-3c1.7-11.4,6.2-21.8,12.3-31.5c1.4-2.3,3.3-4.3,5.5-6 c-0.7,2.9-3.1,5.2-2.8,8.7c4.4-1.2,8.2-3.1,11.9-5c8.8-4.4,17.4-9.3,26.7-12.7c0.9-0.3,1.8-0.8,3.1-0.3c-2.5,2.5-5.2,4.2-8,5.7 c-9.3,5-17.7,11.3-25.3,18.7c-7.6,7.3-13.7,15.7-17,25.9c-1.3,3.9-0.1,5.4,3.9,5.8c5.7,0.6,10.9-0.9,16-3.1 c13.5-5.7,25.4-13.9,37.2-22.4c11.8-8.5,23.6-16.8,36.7-23.2c7.5-3.6,15.3-6.5,23.8-6.7c5.4-0.1,10.7,0.3,15.5,3.1 c3.9,2.3,5.2,5.8,4,10c-1.1,3.7-3.6,6.5-5.8,9.9c-0.7-1.8-1.3-3.2-1.8-4.6c-0.8-2.7-2.7-3.9-5.5-3.8c-14.2,0.1-28.1,2.1-41.4,7.5 c-14.7,5.9-27.5,15-39.9,24.6c-0.4,0.3-1.1,0.6-1.1,1.6c1.2-0.5,2.2-0.9,3.3-1.3c6.1-2.6,11.9-5.5,17.9-8.4 c10.4-5.1,21-9.8,32.4-12.6c6.9-1.7,13.9-1.8,21.2-1.5c0,3.6,0,6.9,0,10.3c0,4,0.4,8,1.4,11.9c2.7,11.1,8.8,20.3,16.6,28.2 c8.8,8.9,17.9,17.6,27,26.2c19,18,33.6,39.2,46.8,61.6c1.3,2.3,2.2,2.4,3.9,0.4c0.7-0.9,1-1.9,1.3-3c0.8-3.4,1.3-6.8,1.5-10.2 c0.5-7.5,0.6-15,1.8-22.5c0.2-1.2,0.1-2.5,1.3-3.5c1.3,1.2,1.4,2.8,1.5,4.4c0.2,2,0,4.1,0.4,6.1c0.7,2.9,1.9,3.5,4.5,2 c2.8-1.6,5-3.8,7.2-6c6.3-6.2,12.2-12.7,14.4-21.6c1.5-6.1,1.7-12.4,1.7-18.7c0-7.4-0.1-14.7-3.1-21.7 c-8.4-19.7-20.5-36.9-34.5-53c-1.2-1.3-2.6-2.5-3.9-3.7c-0.9-0.7-1.9-1.2-3-0.5c-1.1,0.8-1.3,1.9-1,3.1c0.3,1.4,1,2.6,2.1,3.6 c1.4,1.4,1.3,2.9,0,4.3c-0.9,1-1.9,1.9-2.9,2.7c-1.7,1.2-2.9,0.8-3.7-1.1c-0.8-1.9-1.1-3.9-1.2-6c-0.2-5.4-0.3-10.8-0.5-16.2 c-0.1-3.2-0.6-6.3-2.4-9c-2.7-3.9-5.8-7.4-9.6-10.3c-3.6-2.7-5-2.7-8.9,0C443.1,164.1,444.7,157.4,445.1,150.4z M284.7,272 c-0.4-0.2-0.6-0.3-0.8-0.4c-7.7-1.2-15.4-2.6-23.1-4.4c-2.2-0.5-4.1,0.2-5.6,1.8c-1.7,1.7-3.7,3.1-5.8,4.3 c-11.3,6.6-22.9,12.6-34.9,18c-1.6,0.7-3.2,1.6-5,1.6c-0.5-0.8-0.3-1.6-0.4-2.4c-0.1-3.2,0.4-6.4,0.7-9.6 c0.5-5.2-1.1-6.5-6.1-4.6c-0.1,0-0.1,0.1-0.2,0.1c-12.1,4.9-21.3,13-27.6,24.4c-2.9,5.2-4.7,10.8-4.1,16.9 c0.3,3.2,1.2,4.4,4.4,4.9c9.1,1.6,17.1-0.8,23.9-6.9c1.1-1,2-2.2,3-3.3c1.7-1.7,2.4-1.6,3.7,0.3c0.9,1.3,1.9,2.5,3.2,3.4 c5.8,4.5,12.2,7.9,19.2,10.3c2.9,1,6,1.4,9,1.2c5.4-0.3,9.4-2.7,11.5-7.9c2.6-6.4,6.3-12.1,10.5-17.5c1.3-1.7,2.7-3.2,4.4-4.6 c1.5-1.3,2.6-0.9,3.6,0.7c0.9,1.7,1.5,3.6,1.8,5.6c0.5,3.3,1.1,6.5,2.1,9.6c1.2,3.7,2.5,4.4,6.1,2.9c3.7-1.5,6.8-3.8,10-6.1 c10.4-7.7,19.7-16.8,29.6-25.1c4.8-4,9.7-7.7,15.2-10.6c9.9-5.1,20.5-4.3,31.1-3.8c2.9,0.1,4,1.5,4.7,4.1 c5.6,18.8,6.1,37.8,3.5,57.1c-2.1,15.6-5.8,31-9,46.4c-3.6,17.1-6.9,34.3-8,51.8c-0.6,9.4-0.6,18.9,3,27.8 c5.6,13.8,15.1,23.5,30.6,25.3c10.8,1.2,21.4-0.5,31.5-4.9c18.2-7.8,32.3-20.6,43.1-37c8.5-12.9,15-26.4,15.2-42.7 c0.3-25-5.8-47.6-20.3-67.9c-10.6-14.8-23.5-27.3-37.4-38.9c-8.4-7-17.5-13.3-27.1-18.6c-1-0.6-2-1.5-3.5-0.8 c0.4,1.7,1.4,3,2.4,4.3c3.1,4.3,6.6,8.4,10,12.4c6,7.2,12.5,14.1,17.7,21.9c0.6,0.8,1.4,1.6,1.2,2.9c-1.4-0.4-2.2-1.3-3-2.1 c-3.4-3.3-6-7.2-9.2-10.7c-3.2-3.5-6.4-7.2-10.6-9.6c-3-1.7-4.3-1-4.5,2.5c-0.1,1.2-0.1,2.4,0,3.5c0.3,4.6,0.7,9.2,1,13.8 c0.2,2.6,0.4,5.2,0,8.2c-1-0.9-1-1.8-1.3-2.5c-2-7.2-3.6-14.4-5.1-21.7c-2.3-10.7-4.7-21.4-9.4-31.5c-2.2-4.7-4.8-9-9.3-11.9 c-7.7-4.8-15.9-6.3-24.8-4.4c-8.6,1.9-16.4,5.8-23.8,10.4c-7.8,4.7-15.3,9.8-23,14.6c-6.8,4.3-14.3,7-22.6,8.5 C279.1,278.2,281.9,275.2,284.7,272z M278.9,389.3c-1.9,1.1-4,1.1-6,1.1c-5.2-0.1-10.3-0.3-15.5-0.5c-2.3-0.1-4.6-0.1-6.8,0.3 c-3.1,0.6-3.5,1.9-1.4,4.3c0.7,0.8,1.5,1.6,2.4,2.3c2.8,2.2,5.6,4.3,8.4,6.4c2.4,1.9,4.9,3.5,7.4,6.1c-2.4-0.1-4-1-5.7-1.7 c-8-3.1-15.6-7.4-23.9-9.9c-7.9-2.3-15.9-3.9-24.1-2.6c-5.3,0.8-10,3.6-14.8,5.9c-5.4,2.6-10.7,5.3-16.4,7 c-2.6,0.7-3.2,1.4-2.7,4.2c0.6,3.4,2.1,6.4,3.6,9.4c10.8,20.3,28.8,32.2,48.8,41.6c0.9,0.4,2,1,3.3,0.4c-0.4-1.9-1.4-3.4-2.3-5.1 c-2.4-4.6-5.6-8.7-7.8-13.4c-0.5-1.2-1.3-2.3-0.5-3.9c2.7,0.5,4.5,2.2,6.4,3.8c12.8,11.1,27.7,17.9,43.7,22.7 c24.6,7.3,49.8,8.4,75.2,6.9c4.1-0.2,4.4-0.7,3.7-4.8c-0.7-4.1-2-8.1-2.2-12.2c-1.3-20.7-1.1-41.4,2.7-61.9 c0.6-3.4,1.3-6.8,1.2-10.6c-3.1,0.7-5.7,2-8.3,3.3c-5.6,2.6-11.1,2.5-16.5-0.2c-2.4-1.2-4.7-2.5-7-3.9 c-7.6-4.9-14.5-10.8-21.5-16.3c-7.1-5.6-14.2-11.1-22.6-14.8c-9.2-4-19.1-5-28.9-5.6c-35.4-1.9-68.1,5.6-96.3,28.3 c-1.2,0.9-2.4,1.8-4,3c1.3-5.2,3.2-9.5,6.9-12.8c2.7-2.4,5.5-4.6,8.5-6.6c3.5-2.3,6.9-4.7,9.8-7.6c1.5-1.4,1.3-2.2-0.7-2.8 c-2.2-0.7-4.4-1-6.7-1.3c-6.7-0.7-13.5-0.9-20-2.5c-3.2-0.8-5.7-0.1-8,2c-6.9,6.3-12.8,13.4-17.1,21.7c-2.3,4.5-4,9.2-4.5,14.3 c-0.9,8.6,3.6,14.8,12,15.7c10.5,1.1,21.1,1.2,31.6-0.6c9.5-1.7,18.5-5.3,27.6-8.4c9.3-3.2,18.5-7,28.3-8.6 c13.7-2.2,27.4-1.2,41,1.2c5.3,0.9,10.6,2,15.7,4.1C276.6,386.8,278.4,387.3,278.9,389.3z M209.1,463.8c1.1-0.2,2.4,0.4,2.8-0.9 c0.4-1-0.5-1.7-1.2-2.4c-1.1-1-2.2-2-3.3-3c-4.7-3.7-9.7-6.9-14.6-10.2c-9.3-6.2-16.7-13.8-21.3-24.1c-1.5-3.4-3.5-6.6-5.8-9.7 c-0.7-1-1.5-1.4-2.8-1.2c-4.5,0.9-9.1,1.7-13.5,3.2c-4.8,1.6-5.9,3.4-4.5,8.3c2.8,10.3,8.5,18.7,17.6,24.3 c8.5,5.2,18,8.4,27.5,11.3C196.3,461.4,202.7,463,209.1,463.8z M316.6,366.6c5.2-0.1,10-2.3,13.6-6c4.6-4.8,6-11.5,3.1-16.6 c-3.5-6.4-8.2-11.8-13.8-16.5c-1.6-1.3-3-1.3-4.5,0c-5.2,4.4-10.1,9.2-14.1,14.7c-1,1.3-1.8,2.8-1.9,4.5 C298.4,356.2,303.6,366.4,316.6,366.6z M312.2,157.8c4-1.2,7.8-2.3,11.7-3.4c7.6-2.2,15.2-4.6,23.1-5.5c5.1-0.6,6.7-3.4,3.9-7.8 c-2.3-3.7-5.7-6.1-9.8-7.4c-10.1-3-20.3-2.9-30.4-0.2c-2.5,0.6-4.3,2.1-5.5,4.4c-4.1,7.4-7.3,15.1-9.9,23.1c-0.3,1-0.8,2-0.4,3.2 c1.2,0,2-0.9,2.8-1.6c4.2-3.3,7.5-7.3,11.3-11c0.7-0.7,1.3-1.6,2.7-1.4C312.4,152.5,311.7,155,312.2,157.8z M352.8,312.3 c0.1-3.2-0.5-6.2-1.9-9.1c-1.8-4-5-5.9-9.3-6c-3.7-0.1-7.3,0.6-10.9,1.6c-4.2,1.3-6.2,4.1-6.8,8.4c-0.7,5.6,0.4,10.8,2.8,15.7 c2.8,5.8,6.3,11.1,11.9,14.5c2.3,1.4,3.6,1.2,5.1-0.8C349,329.4,352.6,321.5,352.8,312.3z M302,260.2c-9.6-0.8-17.9-3.9-26.3-6.5 c-7-2.2-14-4.5-21.3-5.7c-13.1-2.3-24,2.2-33.7,10.7c-1.1,1-2.3,2.1-2,3.9c1.1,0.4,2,0.1,2.9-0.1c3.3-0.7,6.5-1.9,9.6-3 c3.6-1.3,7.3-1.6,11.1-1c7.2,1.1,14.3,2.9,21.4,4.2c8.5,1.5,17,3.1,25.6,2.6C293.8,264.9,297.8,263.2,302,260.2z M357.3,328.3 c-9,6.1-15,14.9-17.1,25.1c-0.6,3.2-0.7,6.4,1,9.4c4.2,7.3,14,7.8,19.3,0.8c3.1-4.1,4.3-8.9,4.7-13.8 C365.8,341.5,365.7,333.4,357.3,328.3z M368.4,241.2c0-1.5,0-2.9,0-4.2c0-4,0.4-8,1.2-11.9c0.8-3.5,0-4.4-3.6-4 c-12.8,1.5-25,5.2-36.6,10.5c-4.6,2.1-4.6,2.6-1.2,6.5c1.5,1.6,1.6,3.2,0.6,5.1c-0.5,1-1.6,1.8-1.4,3.5c6.6-2,13.2-4,20-4.7 C354.3,241.3,361.2,241.6,368.4,241.2z M156.1,298.8c-0.5,0.4-0.8,0.5-1.1,0.8c-0.4,0.5-0.9,0.9-1.1,1.5 c-4.6,9.7-7.7,19.7-5.5,30.6c1.9,9.3,9.4,14.5,18.8,13.3c2.8-0.4,3.4-1,2.8-3.8c-0.7-4.1-2.1-8-3.6-11.9c-3-8.1-6-16.1-7.8-24.6 C158.2,302.7,157.8,300.6,156.1,298.8z M317,313c0-3.8-2.6-10.2-5.1-13.1c-1-1.2-1.8-0.8-2.8-0.1c-7.4,6-13.9,12.8-19.7,20.4 c-0.9,1.1-0.9,2.3-0.3,3.5c1.5,3.2,3.5,6.2,6.2,8.5c2.6,2.2,5.1,2.5,8,0.7c4.7-2.9,8.7-6.7,11.5-11.5 C316.3,318.8,317.1,316,317,313z M275.8,345.1c0.2-2.8-10-36.7-12.2-40.5c-1.8,2.4-3.6,4.6-5.1,7c-4.7,7.5-7.1,15.6-5.5,24.6 c0.8,4.4,2,5.4,6.4,5.5c4.2,0.1,8.2,1,12.2,2.4C272.9,344.6,274.3,345.1,275.8,345.1z" style="fill: rgb(0, 255, 221);"/>
      <path d="M331,530.6c-1.3-6.3-2.4-12.2-3.7-18.1c-0.6-3.1-1.5-6.1-2.8-9c-1.1-2.3-2.7-3.6-5.5-4.2c-5.5-1.1-10.6-3.6-16-6 c5.6-5.8,12-9.4,19.8-10.4c4.2-0.5,8.5-0.1,12.7-0.1c8,0,15.8-0.6,22.7-5.1c0.3,0.2,0.5,0.2,0.5,0.3c4.2,9.5,12.4,13.1,21.9,14.3 c12,1.5,23.7,0,34.9-4.3c17.1-6.5,32.8-15.2,46.6-27.3c8.3-7.3,14.4-16.1,17.6-26.7c5.1-16.9,8.7-34,8-51.8 c-0.3-6.4-2-12.5-5.1-18.1c0.9-0.7,1.8-0.4,2.6-0.4c2.9,0,3.3-0.3,3.4-3.2c0.1-3.6,0-7.2,0.1-10.8c0-1.9,0.2-3.8,0.3-5.6 c0.4-4.4,2.6-7.1,6.8-8.6c9-3.4,15.2-10,19.6-18.4c7.2-13.6,9.6-28.3,7.8-43.4c-2.9-24.1-12.7-45.4-28.2-64c-1.4-1.6-3-3-4.6-4.4 c-1.6-1.4-3.3-2.6-4.9-3.9c0.3-0.8,0.9-0.7,1.4-0.9c3.3-1.1,6.6-2,9.8-3.3c2-0.8,3.3-0.6,4.8,1c4.4,4.4,10.1,4.9,15.9,4.9 c4.2,0,8.4-1.1,12.7-0.8c3.4,0.2,3.5,0.4,2.5,3.7c-1.6,5.4-3.5,10.7-5.8,15.9c-1,2.3-0.8,4.1,0.3,6.3c7.1,14.1,14.5,28,20.5,42.6 c1.6,3.8,3.2,7.7,4.1,11.8c0.9,4.1,3.4,6.6,7.3,7.9c4.8,1.6,9.8,3,14.4,5.2c3.3,1.6,3.4,2,1,4.8c-3.6,4.1-7.5,8-11.7,11.6 c-5.4,4.5-8,9.8-8.1,17.1c-0.1,24.9-5.8,48.8-14.1,72.1c-0.7,2.1-0.6,3.7,0.6,5.5c2.4,3.7,5.3,7,8.3,10.2c1.5,1.6,3,3.3,4.3,5 c2.8,3.6,2.3,5.4-2,7c-2.9,1.1-6,1.9-9.1,2.4c-7.7,1.3-14.1,5-19.5,10.6c-13.7,14.3-29.3,26.2-45.7,37.2 c-3.8,2.5-7.5,5.2-11.9,6.6c-1.2,0.4-1.2,1.3-1.4,2.2c-1,5.7-0.9,11.4-1,17.1c0,4.5-0.2,8.9-0.8,13.4c-0.1,0.8-0.1,1.6-0.7,2.3 c-1.1,0.2-2-0.5-3-0.9c-6.3-2.7-12.3-6.2-18.5-9.3c-4.5-2.3-9.1-2.9-14.1-1.8c-12.2,2.7-24.5,1.7-36.8,1.3 c-7.6-0.3-15.2-0.6-22.8-0.5c-4.2,0.1-7.9,1.5-11.5,3.6c-7.7,4.7-14.7,10.5-21.9,15.9C332.5,529.5,331.9,530,331,530.6z M568.1,299.3c-6.4-2.8-12.3-5.8-18.8-7.2c-4.1-0.9-8.2-1.4-12.4-0.6c-3.4,0.7-5.6,2.4-6.5,5.9c-1.1,4.4-1.2,8.7-0.1,13 c2.5,10.2,9.3,12.9,18.1,7.2C555.9,312.7,561.4,305.7,568.1,299.3z M506.1,429.5c3.2,0,6.1,0.1,9,0c9.3-0.3,18.4-1.7,27.3-4.4 c3.1-1,3.4-1.9,1.5-4.5c-5-6.7-10.9-12.3-19-15.1c-8.7-3-16.5,1.4-18.3,10.5C505.7,420.4,506.1,424.7,506.1,429.5z M454.5,513.1 c1-0.9,1.1-2.1,1.2-3.2c1-7.1,1.3-14.2,0.7-21.3c-0.2-2-0.7-3.8-1.4-5.7c-0.8-2.3-2.5-3.7-4.8-3.9c-10.5-1.3-17.5,3.4-21.1,13.4 c-0.7,2-0.1,3.5,1.7,4.9c6.6,4.8,13.2,9.5,20.1,13.9C452,511.9,453.1,512.8,454.5,513.1z M333.7,523.4 c5.4-4.2,10.6-8.1,15.7-12.1c2.5-2,4.9-4.1,6.7-6.8c1.9-2.8,2-5.4,0.1-8.1c-3.8-5.6-9.1-8.5-15.9-8.6c-6-0.1-8.2,2-8.9,7.9 C330.4,504.9,331.3,513.9,333.7,523.4z" style="fill: rgb(0, 255, 221);"/>
    </g>
  </g>
</svg>