<?xml version="1.0" standalone="no"?>
<!DOCTYPE svg PUBLIC "-//W3C//DTD SVG 20010904//EN"
 "http://www.w3.org/TR/2001/REC-SVG-20010904/DTD/svg10.dtd">
<svg version="1.0" xmlns="http://www.w3.org/2000/svg"
 width="700.000000pt" height="700.000000pt" viewBox="0 0 700.000000 700.000000"
 preserveAspectRatio="xMidYMid meet">
<metadata>
Created by potrace 1.14, written by Peter Selinger 2001-2017
</metadata>
<g transform="translate(0.000000,700.000000) scale(0.100000,-0.100000)"
fill="#000000" stroke="none">
<path d="M5045 6521 c-112 -32 -228 -102 -310 -185 -50 -51 -60 -63 -122 -142
-42 -54 -84 -73 -148 -69 -184 13 -328 18 -523 18 -148 0 -225 4 -231 11 -5 6
-14 44 -20 84 -17 112 -39 145 -122 181 -80 36 -199 51 -374 47 -199 -4 -245
-17 -321 -91 -43 -42 -66 -79 -124 -201 -39 -82 -86 -178 -103 -214 -79 -161
-160 -254 -286 -329 -41 -24 -116 -79 -166 -121 -124 -104 -211 -162 -390
-260 -173 -95 -216 -123 -267 -177 -96 -99 -91 -208 19 -377 25 -39 47 -81 49
-94 1 -15 -13 -39 -46 -75 -27 -29 -59 -75 -72 -102 -27 -57 -52 -74 -170
-116 -210 -74 -352 -228 -458 -497 -32 -82 -44 -91 -53 -42 -8 40 -46 187 -56
213 -14 37 -47 40 -72 9 -30 -38 -96 -181 -119 -255 -25 -86 -31 -118 -45
-250 -11 -107 -49 -186 -130 -272 -230 -242 -319 -366 -350 -486 -44 -166 44
-322 261 -464 44 -29 87 -63 95 -76 9 -13 26 -66 38 -118 64 -266 171 -426
351 -524 67 -37 257 -99 345 -112 28 -5 57 -10 65 -12 16 -3 55 -9 130 -18 45
-6 106 -12 210 -20 30 -2 78 -6 105 -9 28 -3 82 -8 120 -11 127 -10 348 -46
460 -75 107 -28 279 -90 400 -145 33 -15 88 -40 123 -56 35 -16 69 -29 75 -29
7 0 35 21 62 46 112 103 178 122 430 128 231 5 277 14 351 71 18 14 35 25 38
25 2 0 15 -24 29 -53 45 -98 125 -156 252 -183 53 -11 239 -13 290 -3 28 5 65
12 83 15 18 3 68 16 110 29 307 94 540 231 760 448 177 174 241 315 301 667
11 63 23 131 26 150 4 19 8 100 10 180 5 165 -9 234 -63 335 -17 32 -29 62
-26 66 3 5 20 9 38 9 63 0 70 14 72 143 3 181 28 238 125 277 125 50 209 135
283 284 84 170 106 275 101 486 -4 170 -21 268 -75 430 -38 111 -180 410 -210
440 -3 3 -22 31 -43 62 -37 54 -151 170 -211 213 -49 35 -12 73 101 106 35 10
85 31 110 48 24 16 77 42 116 56 269 99 392 207 432 380 19 78 13 83 -125 100
-14 2 -63 6 -110 10 -210 15 -379 99 -491 244 -19 25 -69 79 -111 122 -104
104 -181 143 -287 145 -47 1 -99 -4 -136 -15z m209 -87 c32 -7 87 -36 125 -65
38 -30 84 -95 177 -249 97 -162 155 -230 179 -210 8 7 15 22 15 34 0 31 16 50
34 43 24 -9 182 -35 256 -42 79 -7 100 -13 123 -33 36 -32 9 -122 -55 -178
-18 -16 -67 -46 -108 -66 -233 -114 -494 -97 -701 44 -85 58 -190 167 -250
258 -79 122 -75 117 -75 89 -1 -13 -4 -51 -8 -84 -20 -160 -22 -186 -18 -190
3 -2 16 2 31 9 14 7 34 12 44 10 48 -7 163 -122 203 -201 23 -46 26 -66 30
-190 6 -193 12 -241 36 -265 19 -19 19 -19 51 5 48 37 54 65 24 110 -19 28
-24 44 -18 60 21 58 73 18 224 -171 161 -202 261 -357 351 -544 87 -180 91
-201 91 -433 -1 -222 -12 -282 -68 -385 -63 -116 -241 -295 -304 -306 -22 -4
-33 22 -38 95 -3 40 -9 80 -14 89 -22 40 -41 -70 -56 -338 -5 -92 -7 -111 -21
-175 -8 -38 -33 -75 -49 -75 -8 0 -37 39 -66 88 -29 48 -93 148 -143 222 -181
272 -298 414 -535 645 -385 376 -431 423 -486 500 -115 159 -161 308 -159 513
1 117 14 105 -121 103 -187 -2 -357 -56 -700 -221 -180 -87 -278 -130 -284
-124 -2 2 -2 6 0 7 39 32 215 158 279 200 220 142 451 236 650 262 25 3 56 8
70 10 66 11 230 14 254 5 17 -6 34 -27 49 -61 l24 -51 31 43 c95 128 76 220
-55 269 -94 35 -260 29 -388 -15 -159 -55 -386 -186 -655 -380 -284 -204 -456
-307 -625 -370 -117 -44 -249 -40 -257 8 -7 43 54 180 127 282 87 122 288 300
440 388 193 111 231 155 86 97 -54 -21 -327 -155 -346 -169 -11 -9 -160 -71
-169 -71 -11 0 -6 29 14 74 10 25 17 46 15 46 -15 0 -72 -75 -114 -149 -61
-107 -98 -201 -123 -311 -11 -47 -23 -92 -27 -100 -15 -32 -92 -59 -246 -88
-56 -10 -210 -6 -258 7 -26 8 -66 30 -88 50 -34 30 -42 44 -46 82 -14 125 138
260 417 369 110 43 149 70 160 110 30 112 414 371 735 496 133 51 365 117 493
138 47 9 83 15 117 20 17 2 49 7 73 11 173 27 464 36 686 21 137 -9 189 -16
199 -26 14 -12 0 -41 -36 -80 -54 -58 -89 -108 -82 -120 28 -45 133 42 295
245 285 355 388 422 584 379z m-1894 -83 c114 -22 191 -67 226 -133 34 -65 8
-101 -80 -113 -77 -10 -203 -41 -396 -99 -47 -14 -88 -26 -92 -26 -5 0 -8 19
-8 43 0 82 -11 80 -107 -14 -120 -118 -136 -130 -145 -121 -23 23 142 398 187
428 27 18 75 31 150 40 28 4 51 7 53 9 7 6 155 -4 212 -14z m498 -1326 c5 -10
4 -41 -3 -78 -6 -34 -11 -95 -11 -134 l1 -73 -90 -1 c-215 -2 -316 -16 -482
-67 -41 -13 -46 -7 -23 35 21 39 18 54 -17 96 -30 37 -29 43 10 67 79 49 387
147 507 162 76 10 99 8 108 -7z m-95 -394 c74 -25 146 -73 183 -122 71 -95
134 -270 193 -539 23 -102 48 -210 55 -240 8 -30 20 -75 26 -99 14 -55 29 -38
24 28 -1 25 -6 83 -9 128 -10 144 -8 194 8 210 14 14 20 13 59 -10 43 -25 149
-132 238 -239 25 -30 55 -62 68 -72 73 -56 -44 107 -250 349 -130 152 -195
241 -184 252 10 10 94 -35 213 -114 332 -220 711 -603 872 -880 97 -169 170
-379 196 -568 3 -27 9 -66 12 -85 12 -78 5 -316 -12 -394 -41 -195 -152 -407
-315 -606 -54 -66 -160 -172 -210 -208 -19 -15 -37 -29 -40 -33 -9 -10 -99
-69 -105 -69 -4 0 -18 -8 -31 -19 -37 -29 -204 -99 -291 -122 -153 -39 -341
-33 -467 17 -152 59 -285 233 -332 432 -22 92 -22 372 0 487 2 11 7 47 10 80
6 50 20 138 53 315 8 46 71 353 102 496 17 77 33 156 36 175 3 19 10 59 15 89
5 30 12 73 15 95 3 22 7 56 10 75 15 103 20 343 10 440 -3 25 -7 65 -10 90 -9
90 -45 247 -67 295 -15 34 -29 37 -168 41 -138 3 -217 -7 -300 -37 -64 -23
-210 -120 -301 -199 -34 -30 -106 -93 -158 -139 -53 -46 -109 -95 -126 -110
-66 -57 -199 -153 -245 -176 -86 -44 -114 -30 -136 65 -4 19 -8 37 -9 40 -1 3
-5 28 -9 56 -8 52 -38 114 -55 114 -36 0 -156 -158 -226 -297 -25 -49 -56
-100 -69 -112 -60 -57 -174 -61 -299 -13 -107 41 -213 106 -268 164 l-46 48
-52 -50 c-64 -61 -124 -97 -193 -116 -100 -26 -217 -13 -239 28 -17 31 -5 152
20 217 48 120 164 265 274 340 65 45 176 98 212 102 23 3 32 -1 42 -21 7 -14
10 -34 8 -45 -9 -42 -14 -171 -7 -182 9 -14 92 21 281 116 184 92 321 170 371
211 25 20 55 40 66 44 12 4 64 -2 115 -13 52 -11 121 -25 154 -31 102 -18 119
-21 123 -24 3 -4 -3 -12 -73 -84 l-50 -52 35 6 c58 11 202 64 250 92 25 14
133 81 240 150 228 145 350 207 469 238 105 27 201 26 294 -5z m-1533 -7 c52
-12 160 -43 240 -69 160 -50 275 -81 333 -88 21 -3 41 -7 43 -10 3 -3 -24 -19
-59 -37 -87 -43 -168 -46 -384 -16 -18 3 -129 23 -245 46 -236 47 -265 47
-388 7 -120 -40 -140 -42 -140 -19 0 56 209 182 340 205 57 11 170 2 260 -19z
m1290 -734 c61 -31 85 -91 85 -205 -1 -102 -18 -165 -71 -262 -48 -87 -80
-123 -105 -118 -49 10 -146 111 -191 199 -76 150 -74 316 6 366 63 40 215 51
276 20z m-2806 -27 c7 -16 20 -55 27 -88 7 -33 35 -123 62 -200 128 -367 128
-364 38 -371 -130 -10 -234 74 -258 212 -24 130 29 373 99 462 14 17 15 16 32
-15z m2313 -25 c57 -91 67 -183 29 -263 -47 -99 -166 -205 -232 -205 -39 0
-81 33 -125 96 -44 64 -44 79 0 137 72 98 258 277 286 277 8 0 27 -19 42 -42z
m-683 -185 c65 -202 135 -453 124 -453 -2 0 -32 9 -68 21 -65 20 -87 24 -174
34 -79 8 -95 35 -97 155 -1 100 19 173 72 265 30 53 78 115 89 115 5 0 29 -62
54 -137z m829 -242 c104 -100 170 -211 170 -283 -2 -158 -194 -282 -353 -228
-108 36 -170 124 -173 242 -2 56 2 68 30 108 37 53 131 151 188 198 49 40 63
37 138 -37z m547 7 c50 -50 73 -110 75 -201 4 -165 -45 -294 -130 -339 -112
-61 -245 20 -245 151 0 84 66 232 140 317 29 34 111 104 120 104 3 0 21 -15
40 -32z m-2970 -243 c164 -13 250 -30 250 -49 0 -17 -38 -51 -172 -150 -65
-48 -129 -102 -143 -120 -29 -38 -68 -123 -63 -137 2 -6 42 19 88 54 184 138
341 221 549 292 93 31 159 47 328 79 161 31 606 28 753 -6 25 -5 56 -12 70
-14 40 -8 147 -53 213 -91 69 -39 152 -99 337 -246 241 -192 384 -268 471
-252 66 13 88 19 129 40 25 12 56 26 69 30 23 7 24 7 18 -56 -3 -35 -8 -77
-11 -94 -10 -50 -16 -88 -21 -135 -3 -25 -8 -54 -10 -65 -9 -47 -19 -262 -18
-415 0 -242 4 -304 24 -399 21 -98 23 -137 10 -146 -23 -14 -403 -21 -569 -10
-491 31 -967 198 -1227 429 -44 39 -95 67 -107 60 -16 -10 -7 -32 68 -159 90
-154 91 -155 73 -165 -9 -6 -51 11 -124 49 -260 137 -418 264 -550 441 -65 88
-135 234 -135 280 l0 37 76 27 c42 15 126 52 188 83 61 30 133 63 161 74 75
28 183 34 293 15 110 -19 178 -42 372 -126 153 -66 200 -83 200 -72 -1 4 -61
54 -135 111 -74 57 -137 112 -141 123 -12 39 7 43 226 43 207 0 250 6 218 32
-19 15 -178 62 -245 73 -32 6 -67 12 -78 14 -11 2 -45 7 -75 10 -30 4 -72 9
-93 12 -55 7 -230 7 -317 0 -112 -10 -218 -39 -469 -126 -389 -136 -459 -152
-676 -154 -258 -1 -338 20 -384 104 -59 107 -10 299 122 480 65 88 188 210
222 219 18 4 58 2 100 -6 39 -7 99 -15 135 -18z m93 -990 c12 -14 51 -80 87
-146 100 -183 165 -251 395 -407 66 -44 140 -100 164 -123 40 -38 42 -43 27
-54 -11 -8 -30 -10 -59 -5 -23 5 -55 10 -72 13 -95 15 -353 99 -471 152 -201
92 -314 211 -373 397 -25 78 -14 119 39 140 31 13 198 56 223 57 9 1 27 -10
40 -24z"/>
<path d="M5670 5370 c-88 -30 -97 -41 -57 -69 65 -45 257 -275 257 -307 0 -7
4 -14 8 -16 16 -6 100 -171 143 -278 140 -353 157 -689 49 -967 -70 -183 -170
-302 -309 -373 -46 -23 -90 -48 -98 -55 -26 -27 -35 -73 -39 -210 -3 -77 -7
-146 -9 -152 -2 -7 -20 -13 -38 -13 -19 0 -36 -2 -39 -5 -3 -3 6 -27 19 -55
42 -88 56 -188 49 -345 -3 -77 -8 -151 -10 -165 -3 -14 -7 -42 -10 -63 -18
-118 -64 -311 -102 -426 -42 -125 -119 -247 -212 -338 -89 -87 -252 -208 -367
-274 -76 -43 -275 -139 -288 -139 -7 0 -17 -4 -23 -9 -17 -16 -157 -59 -244
-75 -224 -41 -439 -15 -547 67 -33 26 -65 65 -110 136 -1 2 -13 -3 -25 -11
-74 -47 -151 -60 -363 -63 -202 -2 -269 -22 -382 -112 -24 -19 -43 -38 -43
-42 0 -9 156 -73 220 -90 56 -15 72 -27 94 -68 15 -30 65 -232 80 -328 12 -72
15 -71 126 16 154 119 263 189 329 210 52 16 83 17 262 12 420 -12 583 -9 679
11 55 12 112 13 153 5 23 -5 120 -48 215 -96 104 -52 176 -83 182 -77 14 14
20 76 25 249 2 88 7 182 11 208 6 47 8 49 59 71 62 28 214 129 382 255 150
111 246 193 381 325 156 153 188 171 370 217 198 49 203 64 72 210 -148 165
-149 168 -104 300 33 101 98 328 108 379 2 14 9 46 15 73 6 26 14 64 17 85 3
20 7 44 9 52 3 8 7 44 11 80 3 36 8 68 10 71 2 4 6 71 10 150 9 239 21 267
170 404 114 105 159 162 144 181 -6 6 -64 31 -128 54 -200 71 -195 67 -242
211 -41 125 -93 242 -238 533 -98 198 -123 256 -119 280 2 17 23 79 46 139 23
59 43 124 44 145 l2 37 -75 -2 c-41 -1 -114 -2 -162 -3 -101 -2 -145 10 -209
56 -26 19 -53 34 -60 33 -8 -1 -52 -14 -99 -29z m851 -1384 c71 -15 269 -93
269 -106 0 -18 -232 -238 -284 -269 -113 -68 -195 -52 -244 48 -24 50 -27 67
-27 156 0 113 14 147 70 171 39 17 133 17 216 0z m-311 -1701 c92 -46 222
-167 245 -227 17 -44 -213 -96 -454 -103 l-124 -4 5 107 c6 127 28 186 86 225
52 35 60 37 127 33 41 -2 78 -12 115 -31z m-1118 -1080 c46 -19 70 -208 49
-385 -7 -52 -14 -96 -16 -99 -12 -11 -122 57 -300 186 -62 46 -81 64 -83 86
-7 57 67 165 138 202 59 31 152 35 212 10z m-1570 -135 c58 -22 97 -52 134
-102 53 -72 20 -134 -139 -258 -56 -44 -119 -94 -140 -111 -21 -17 -42 -28
-47 -23 -18 20 -33 127 -36 264 -2 125 0 151 16 188 11 23 30 47 42 52 39 15
115 11 170 -10z"/>
</g>
</svg>
